<svg xmlns="http://www.w3.org/2000/svg" viewBox="0 0 280 300" width="280" height="300">
  <path d="M140 16 242 52v75c0 67-42 111-102 143-60-32-102-76-102-143V52Z" fill="#1d4ed8"/>
  <path d="M140 48 210 73v54c0 45-25 78-70 105-45-27-70-60-70-105V73Z" fill="#dbeafe"/>
  <path d="m140 78 18 36 40 6-29 28 7 40-36-19-36 19 7-40-29-28 40-6Z" fill="#1d4ed8"/>
  <text x="140" y="294" fill="#1e3a8a" font-family="Arial, sans-serif" font-size="28" font-weight="700" text-anchor="middle">COBALT</text>
</svg>
